<?xml version="1.0" standalone="no"?>
<!DOCTYPE svg PUBLIC "-//W3C//DTD SVG 20010904//EN"
 "http://www.w3.org/TR/2001/REC-SVG-20010904/DTD/svg10.dtd">
<svg version="1.0" xmlns="http://www.w3.org/2000/svg"
 width="778.000000pt" height="550.000000pt" viewBox="0 0 778.000000 550.000000"
 preserveAspectRatio="xMidYMid meet">

<g transform="translate(0.000000,550.000000) scale(0.100000,-0.100000)"
fill="#000000" stroke="none">
<path d="M3801 4065 c173 -90 368 -420 473 -800 15 -55 31 -111 35 -125 12
-40 66 -70 124 -70 72 0 132 32 169 89 29 45 30 47 24 151 -3 58 -14 148 -25
200 -12 52 -30 157 -41 234 -11 76 -28 154 -37 173 -54 115 -266 151 -366 63
l-33 -28 -37 27 c-71 54 -230 112 -302 111 -29 -1 -29 -1 16 -25z m551 -202
c22 -20 23 -51 1 -75 -22 -25 -59 -23 -77 4 -21 30 -20 44 4 68 24 24 47 25
72 3z m-92 -98 c16 -20 16 -61 0 -80 -21 -26 -72 -15 -88 18 -12 24 -11 31 2
53 19 28 66 33 86 9z m196 -10 c33 -50 -20 -104 -71 -71 -29 19 -32 51 -8 78
23 26 59 23 79 -7z m-94 -100 c8 -19 8 -31 0 -51 -10 -21 -18 -25 -49 -22 -31
2 -39 8 -47 30 -20 58 71 98 96 43z"/>
<path d="M3540 4009 c-25 -11 -58 -32 -73 -47 -56 -54 -67 -84 -92 -254 -13
-90 -31 -208 -39 -263 -29 -188 -16 -282 48 -333 94 -73 244 -44 296 58 11 21
24 70 30 107 17 122 56 197 127 245 55 38 101 44 156 20 54 -24 75 -55 137
-197 23 -55 45 -102 48 -105 11 -11 -10 87 -39 178 -83 260 -266 531 -401 592
-57 26 -140 26 -198 -1z m128 -142 c6 -7 12 -35 14 -62 l3 -50 50 -3 c57 -4
75 -15 75 -47 0 -32 -18 -43 -75 -47 l-50 -3 -3 -50 c-4 -55 -15 -75 -43 -75
-32 0 -49 28 -49 81 l0 49 -55 0 c-49 0 -57 3 -66 24 -8 17 -8 29 0 45 10 17
21 21 66 21 l55 0 0 53 c0 29 5 58 12 65 16 16 53 15 66 -1z"/>
<path d="M2715 2801 c-46 -21 -79 -54 -94 -94 -17 -44 -14 -440 3 -480 17 -42
66 -83 114 -97 24 -8 143 -10 348 -8 l311 3 41 28 c55 39 74 81 70 160 l-3 62
-87 3 -87 3 -15 -34 c-26 -64 -39 -67 -249 -67 -199 0 -234 7 -257 49 -5 11
-10 77 -10 146 0 127 0 127 29 156 l29 29 200 0 c188 0 201 -1 226 -21 15 -12
32 -32 36 -45 9 -22 15 -24 87 -24 43 0 84 4 92 9 10 6 12 26 9 75 -3 56 -8
70 -33 97 -63 66 -76 69 -415 69 -275 0 -309 -2 -345 -19z"/>
<path d="M3622 2473 l3 -348 355 0 355 0 0 75 0 75 -265 5 -265 5 -3 48 c-5
79 -12 77 264 77 l244 0 0 65 0 65 -250 0 -250 0 -6 24 c-3 13 -4 38 -2 57 l3
34 265 5 265 5 3 78 3 77 -361 0 -360 0 2 -347z"/>
<path d="M4547 2806 c-45 -20 -96 -74 -102 -109 -4 -18 -5 -132 -3 -254 l3
-222 35 -37 c60 -63 66 -64 402 -64 273 0 307 2 343 19 46 21 79 54 94 94 7
17 11 113 11 237 0 124 -4 220 -11 237 -15 40 -48 73 -94 94 -36 17 -69 19
-345 18 -219 0 -313 -4 -333 -13z m575 -184 c21 -20 23 -34 26 -133 6 -195 1
-199 -273 -199 l-197 0 -29 29 c-29 29 -29 30 -29 153 0 116 1 126 23 145 12
11 29 23 37 26 8 4 106 5 217 4 196 -2 203 -3 225 -25z"/>
<path d="M2691 1973 c-36 -18 -71 -78 -71 -123 0 -14 9 -44 19 -66 15 -34 28
-45 65 -59 51 -20 102 -15 137 14 17 13 23 31 27 75 l5 57 -59 -3 c-44 -2 -59
-7 -59 -18 0 -9 12 -17 30 -20 24 -4 30 -10 30 -30 0 -53 -88 -52 -128 2 -24
32 -17 88 15 120 18 18 28 20 84 14 53 -5 64 -4 64 8 0 43 -96 60 -159 29z"/>
<path d="M3008 1978 c-15 -12 -118 -230 -118 -250 0 -4 11 -8 25 -8 18 0 28 7
35 25 9 23 14 25 78 25 64 0 70 -2 80 -25 8 -17 20 -25 37 -25 14 0 25 2 25 5
0 15 -112 250 -123 257 -16 10 -21 10 -39 -4z m46 -108 c9 -22 16 -45 16 -50
0 -12 -77 -14 -83 -2 -6 10 32 92 42 92 5 0 16 -18 25 -40z"/>
<path d="M3195 1968 c-3 -13 -5 -72 -3 -133 3 -105 4 -110 26 -113 21 -3 22
-1 22 82 0 47 4 86 9 86 6 0 24 -20 42 -45 18 -25 36 -45 40 -45 4 0 26 23 48
51 23 29 41 45 42 38 0 -8 2 -48 2 -89 2 -70 4 -75 25 -78 22 -3 22 -2 22 127
0 71 -4 132 -9 135 -18 12 -50 -10 -86 -56 -20 -27 -39 -48 -43 -48 -4 0 -17
15 -29 33 -54 78 -97 100 -108 55z"/>
<path d="M3527 1984 c-4 -4 -7 -65 -7 -136 l0 -128 101 0 c98 0 100 0 97 23
-3 20 -9 22 -76 25 -73 3 -73 3 -70 30 3 26 5 27 71 30 58 3 67 5 67 22 0 17
-9 19 -67 22 -68 3 -68 3 -68 32 l0 29 70 1 c68 1 70 2 70 26 0 25 -1 25 -90
28 -50 1 -94 0 -98 -4z"/>
<path d="M3767 1983 c-4 -3 -7 -64 -7 -135 0 -128 0 -129 23 -126 18 2 23 10
25 46 4 56 25 55 82 -3 32 -33 52 -45 73 -45 l29 0 -36 42 c-41 48 -43 54 -17
63 24 7 45 57 38 87 -10 39 -31 59 -72 68 -47 11 -129 13 -138 3z m154 -64
c24 -38 -6 -69 -67 -69 l-44 0 0 46 0 47 51 -5 c28 -3 55 -12 60 -19z"/>
<path d="M4122 1974 c-35 -24 -46 -51 -32 -84 13 -32 23 -37 94 -54 56 -13 77
-35 57 -60 -18 -21 -75 -20 -112 1 -22 13 -32 14 -40 6 -34 -34 46 -79 121
-69 72 9 110 70 80 126 -10 19 -47 34 -112 45 -27 4 -38 11 -38 23 0 40 43 53
90 28 28 -16 63 -4 54 18 -13 35 -121 49 -162 20z"/>
<path d="M4333 1983 c-7 -2 -13 -13 -13 -23 0 -15 9 -19 43 -22 l42 -3 3 -108
c3 -105 3 -108 25 -105 21 3 22 8 25 111 l3 107 39 0 c33 0 40 4 40 19 0 10
-7 22 -16 25 -19 7 -173 7 -191 -1z"/>
<path d="M4630 1972 c-62 -31 -86 -113 -55 -188 11 -26 26 -40 61 -55 75 -34
152 -10 180 56 55 131 -62 249 -186 187z m125 -57 c35 -34 35 -96 0 -130 -30
-31 -83 -33 -116 -6 -20 16 -24 29 -24 71 0 42 4 55 24 71 33 27 86 25 116 -6z"/>
<path d="M4877 1983 c-4 -3 -7 -64 -7 -135 l0 -128 24 0 c22 0 25 5 28 43 3
38 5 42 27 39 14 -1 39 -20 58 -42 26 -30 42 -40 65 -40 l30 0 -36 45 -37 44
25 17 c55 36 40 129 -24 151 -38 13 -142 17 -153 6z m137 -53 c18 -7 26 -17
26 -34 0 -32 -29 -48 -78 -44 -36 3 -37 4 -40 46 -3 42 -3 42 32 42 19 0 46
-4 60 -10z"/>
<path d="M5127 1984 c-4 -4 -7 -65 -7 -136 l0 -128 101 0 c98 0 100 0 97 23
-3 20 -9 22 -76 25 -73 3 -73 3 -70 30 3 26 6 27 73 32 53 4 70 9 70 20 0 11
-17 16 -70 20 l-70 5 0 30 0 30 70 0 c68 0 70 1 70 25 0 25 -1 25 -90 28 -50
1 -94 0 -98 -4z"/>
</g>
</svg>
